<?xml version="1.0" encoding="UTF-8" standalone="no"?> <svg xmlns="http://www.w3.org/2000/svg" xmlns:xlink="http://www.w3.org/1999/xlink" viewBox="0 0 64 64"><defs><style>.cls-1{fill:url(#linear-gradient);}.cls-2{fill:url(#linear-gradient-2);}</style><linearGradient id="linear-gradient" x1="2" y1="34.91" x2="50.65" y2="34.91" gradientUnits="userSpaceOnUse"><stop offset="0" stop-color="#17a6d7"/><stop offset="1" stop-color="#9d31fe"/></linearGradient><linearGradient id="linear-gradient-2" x1="41" y1="12.5" x2="61.97" y2="12.5" xlink:href="#linear-gradient"/></defs><g id="Layer_69" data-name="Layer 69"><path class="cls-1" d="M34.2,31.51c10-7.45,4.73-23.61-7.89-23.64S8.43,24.07,18.43,31.52A24.36,24.36,0,0,0,2,54.52c0,8.21,4.53,9,12.06,5.33,9.31-4.35,15.23-4.35,24.53,0,7,3.42,12.1,3.31,12.06-5.33A24.37,24.37,0,0,0,34.2,31.51ZM26.31,11.87A9.16,9.16,0,0,1,35.46,21C35,33.15,17.65,33.15,17.16,21A9.17,9.17,0,0,1,26.31,11.87ZM46,57.93c-.69.45-3.78-.88-5.84-1.75-3.81-1.63-8.55-3.66-13.84-3.66s-10,2-13.84,3.66c-2.05.87-5.15,2.2-5.83,1.75,0,0-.65-.46-.65-3.41a20.33,20.33,0,0,1,40.65,0C46.65,57.47,46,57.93,46,57.93Z"/><path class="cls-2" d="M60,10.5H53.5V4a2,2,0,0,0-4,0v6.5H43a2,2,0,0,0,0,4h6.5V21a2,2,0,0,0,4,0V14.5H60A2,2,0,0,0,60,10.5Z"/></g></svg>